# xmcd
#
# Track frame offsets: 
#        150
#        13074
#        33671
#        52064
#        69765
#        84519
#        101271
#        116853
#        134444
#        150513
#        174972
#        194072
#        212470
#        228951
#
# Disc length: 3274 seconds
#
# Revision: 0
# Processed by: cddbd v1.5.2PL0 Copyright (c) Steve Scherf et al.
# Submitted via: ExactAudioCopy v0.99pb3
#
DISCID=b70cc80e
DTITLE=Mason Casey - Sofa King Badass
DYEAR=2007
DGENRE=Blues
TTITLE0=You Make It Hard
TTITLE1=Nine Times A Man
TTITLE2=It's That Time Of Year Again
TTITLE3=Chesterfield County Jail
TTITLE4=Blue Hair Woman
TTITLE5=Don't End Our Love
TTITLE6=Sofa King Badass
TTITLE7=Taxi Love
TTITLE8=Let Me In
TTITLE9=Take Me To The Airport
TTITLE10=It Takes A Lotta Love
TTITLE11=That's My Heart
TTITLE12=Done Crying
TTITLE13=My Prayer
EXTD=
EXTT0=
EXTT1=
EXTT2=
EXTT3=
EXTT4=
EXTT5=
EXTT6=
EXTT7=
EXTT8=
EXTT9=
EXTT10=
EXTT11=
EXTT12=
EXTT13=
PLAYORDER=
